<svg width="160" height="40" viewBox="0 0 159 40" xmlns="http://www.w3.org/2000/svg"><g fill="#FFF" fill-rule="evenodd"><path d="M154.676459 10.1479112L154.678038 29.5856432 158.980336 29.5856432 158.981916 10.1479112z"/><path d="M143.573 21.719c.017-.325.103-.636.254-.938.156-.296.367-.56.62-.784.26-.223.56-.4.897-.529a3.27 3.27 0 0 1 1.14-.193c.841 0 1.47.241 1.894.722.415.48.625 1.056.625 1.722h-5.43zm7.52-3.496a5.651 5.651 0 0 0-2.037-1.375c-.786-.317-1.654-.476-2.596-.478-.982 0-1.895.164-2.73.489a6.551 6.551 0 0 0-2.193 1.375 6.448 6.448 0 0 0-1.467 2.161c-.364.85-.542 1.795-.542 2.84 0 1.081.186 2.044.555 2.88.37.842.875 1.547 1.52 2.12a6.604 6.604 0 0 0 2.25 1.314c.864.3 1.773.451 2.734.451 1.303 0 2.452-.236 3.434-.708a5.937 5.937 0 0 0 2.386-2.018l-2.935-1.85a3.413 3.413 0 0 1-1.133.964c-.471.248-1.034.37-1.703.37-.377 0-.743-.057-1.096-.176a3.545 3.545 0 0 1-.951-.504 2.842 2.842 0 0 1-.697-.757 2.278 2.278 0 0 1-.322-.98h9.3c.015-.154.025-.315.025-.488v-.513c0-1.097-.158-2.074-.481-2.929a6.346 6.346 0 0 0-1.32-2.188zm-32.716 6.22c.004.81-.225 1.447-.68 1.916-.46.473-1.11.707-1.967.707-.208 0-.422-.02-.647-.066a1.666 1.666 0 0 1-.592-.217 1.352 1.352 0 0 1-.426-.41 1.106 1.106 0 0 1-.168-.618c.002-.373.12-.677.362-.91.241-.235.549-.41.913-.529.373-.12.788-.2 1.262-.244.47-.044.941-.064 1.405-.064l.539-.001v.436zm3.543-4.332c-.215-.848-.55-1.548-1.018-2.108-.465-.555-1.066-.966-1.815-1.231-.748-.27-1.658-.403-2.74-.403a9.16 9.16 0 0 0-3.08.54 7.439 7.439 0 0 0-2.638 1.623l2.136 2.288a5.414 5.414 0 0 1 1.434-.926 4.063 4.063 0 0 1 1.735-.389c.654-.002 1.2.153 1.65.45.44.302.666.771.666 1.405v.207a27.9 27.9 0 0 0-2.859.152c-.977.105-1.867.309-2.668.62-.791.305-1.444.74-1.953 1.308-.509.567-.758 1.311-.756 2.236-.002.755.14 1.39.433 1.905.293.513.665.924 1.122 1.233.457.31.956.533 1.507.668a6.625 6.625 0 0 0 1.597.204 5.307 5.307 0 0 0 2.15-.436c.66-.291 1.154-.7 1.48-1.233h.075v1.362h3.86v-6.453c0-1.166-.105-2.174-.318-3.022zm-17.42 4.246c-.13.4-.323.755-.581 1.066a3.008 3.008 0 0 1-.955.743c-.376.19-.814.283-1.311.283-.48 0-.91-.094-1.288-.283-.377-.19-.7-.435-.967-.743a3.637 3.637 0 0 1-.62-1.055 3.667 3.667 0 0 1-.215-1.212c0-.412.071-.809.215-1.202.149-.4.359-.748.618-1.059.27-.306.59-.557.969-.747.377-.187.81-.28 1.291-.28.495 0 .932.094 1.308.282.38.188.697.433.957.736.256.297.449.646.577 1.039.131.395.197.794.193 1.208 0 .41-.063.817-.191 1.224m2.624-5.93a5.764 5.764 0 0 0-1.902-1.467c-.752-.36-1.59-.541-2.514-.54-.94-.001-1.74.18-2.391.54-.658.36-1.163.759-1.521 1.184h-.055l.004-7.996-4.225.002v19.436h3.889l-.002-1.67h.05c.414.65 1.002 1.152 1.765 1.504.766.35 1.577.527 2.433.527.962 0 1.823-.19 2.58-.564a5.974 5.974 0 0 0 1.917-1.509 6.598 6.598 0 0 0 1.195-2.17c.275-.822.414-1.68.414-2.57 0-.893-.14-1.745-.424-2.561a6.595 6.595 0 0 0-1.213-2.146M134 24.357c-.13.4-.323.755-.581 1.066a3.008 3.008 0 0 1-.955.743c-.375.19-.814.283-1.31.283-.481 0-.911-.094-1.289-.283-.377-.19-.7-.435-.967-.743a3.673 3.673 0 0 1-.62-1.055 3.646 3.646 0 0 1-.214-1.212c-.002-.412.07-.809.214-1.202.15-.4.36-.748.619-1.059.268-.306.589-.557.968-.747.378-.187.81-.28 1.291-.28.495 0 .933.094 1.308.282.38.188.698.433.958.736.255.297.448.646.576 1.039.131.395.197.794.193 1.208 0 .41-.062.817-.191 1.224m2.624-5.93a5.76 5.76 0 0 0-1.902-1.467c-.751-.36-1.588-.541-2.514-.54-.94-.001-1.74.18-2.391.54-.658.36-1.162.759-1.52 1.184h-.056l.004-7.996-4.225.002v19.436h3.889v-1.67h.05c.413.65 1 1.152 1.763 1.504.766.35 1.577.527 2.433.527.962 0 1.823-.19 2.58-.564a5.965 5.965 0 0 0 1.918-1.509 6.584 6.584 0 0 0 1.194-2.17c.275-.822.414-1.68.414-2.57 0-.893-.14-1.745-.423-2.561a6.612 6.612 0 0 0-1.214-2.146M73.88 22.286c0 .498-.06.97-.181 1.415a3.242 3.242 0 0 1-.593 1.192 2.812 2.812 0 0 1-1.068.839c-.437.205-.962.308-1.581.307-.621.001-1.146-.103-1.583-.309a2.744 2.744 0 0 1-1.057-.837 3.626 3.626 0 0 1-.594-1.194 5.18 5.18 0 0 1-.192-1.413v-10.98h-4.377v11.336c0 1.1.18 2.097.54 3.002.362.896.876 1.669 1.546 2.31.668.645 1.483 1.147 2.446 1.508.96.355 2.047.54 3.243.54 1.185 0 2.265-.185 3.237-.538.964-.362 1.795-.864 2.485-1.51a6.518 6.518 0 0 0 1.578-2.312c.37-.903.554-1.9.554-3l.003-11.336H73.88v10.98zm17.292-4.064a5.429 5.429 0 0 0-1.952-1.375c-.757-.315-1.913-.477-2.817-.477-.904 0-2.06.162-2.816.477a5.432 5.432 0 0 0-1.953 1.375c-.546.602-.97 1.33-1.274 2.188-.307.857-.293 1.832-.292 2.931v6.247h4.27v-7.02c.042-1.11.945-2 2.065-1.998a2.07 2.07 0 0 1 2.066 1.999v7.019h4.269V23.34c.002-1.1.015-2.074-.292-2.931-.304-.859-.728-1.586-1.274-2.188M50.116 36.258h-7.47v-19.92a6.224 6.224 0 0 0-7.464-6.099 8.685 8.685 0 0 1 6.22-2.615 8.714 8.714 0 0 1 8.714 8.715v19.92zm-19.92-19.92v7.47a8.715 8.715 0 0 1-8.714 8.716 8.686 8.686 0 0 1-6.219-2.615 6.224 6.224 0 0 0 7.463-6.1v-7.47c0-7.563 6.132-13.694 13.695-13.694 3.32 0 6.364 1.182 8.735 3.148a11.16 11.16 0 0 0-3.755-.659c-6.188 0-11.205 5.017-11.205 11.205zM16.502 37.505c-7.564 0-13.694-6.132-13.694-13.696V3.89h7.469v19.918c0 6.189 5.017 11.206 11.205 11.206 1.319 0 2.579-.24 3.754-.659a13.638 13.638 0 0 1-8.734 3.149zM36.422.154c-8.94 0-16.185 7.247-16.185 16.185v7.47a3.735 3.735 0 1 1-7.47 0V1.398H.318v22.41c0 8.939 7.246 16.184 16.185 16.184 8.552 0 15.536-6.637 16.127-15.038.037-.377.057-.759.057-1.147v-7.47a3.735 3.735 0 0 1 7.47 0v22.41h12.45v-22.41c0-.385-.02-.768-.058-1.145C51.958 6.792 44.973.155 36.421.155z"/></g></svg>